<svg xmlns="http://www.w3.org/2000/svg" viewBox="0 0 533.87 317.78"><defs><style>.cls-1{fill:#326de6;}.cls-2,.cls-5,.cls-6{fill:#fff;}.cls-3{fill:#c8521f;}.cls-4{opacity:0.1;}.cls-5{opacity:0.3;}.cls-6{opacity:0.4;}.cls-7{fill:#a52f0b;}.cls-8{fill:#830d01;}.cls-9{fill:#ebebeb;}.cls-10{fill:#1f1d21;}.cls-11{fill-rule:evenodd;}</style></defs><title>Recurso 3</title><g id="Capa_2" data-name="Capa 2"><g id="Capa_1-2" data-name="Capa 1"><path id="path10349" class="cls-1" d="M520.67,160.23a11.16,11.16,0,0,0-5.52-6.39l-52.64-25.19a9.65,9.65,0,0,0-4.31-.87,18.06,18.06,0,0,0-4.32.35L401.25,153.5a9.28,9.28,0,0,0-5.18,6.38l-12.94,56.78a10.85,10.85,0,0,0,1.9,8.28L421.44,270a12.56,12.56,0,0,0,7.94,3.62h58A8.63,8.63,0,0,0,495.3,270l36.42-45.05a11.83,11.83,0,0,0,2.07-8.28l-13.12-56.43Z"/><path id="path10351" class="cls-2" d="M512.56,214.42h0c-.17,0-.35,0-.35-.18s-.34-.17-.69-.17a8.52,8.52,0,0,0-2.07-.17,2.2,2.2,0,0,1-1-.17h-.17a35.45,35.45,0,0,1-5.87-1,2.06,2.06,0,0,1-1.21-1.21h0l-1.38-.34A45.18,45.18,0,0,0,499.1,196a46.83,46.83,0,0,0-6-14.15l1-1h0v-.17a2.42,2.42,0,0,1,.52-1.55,31.15,31.15,0,0,1,4.83-3.45h0l1-.52c.69-.35,1.21-.69,1.9-1,.17-.17.34-.17.52-.34s0-.17,0-.35h0a3.38,3.38,0,0,0,.69-4.83,3.32,3.32,0,0,0-2.42-1.21,4.13,4.13,0,0,0-2.42.87h0l-.17.17c-.17.17-.34.34-.52.34a12.07,12.07,0,0,0-1.38,1.56,2.5,2.5,0,0,1-.69.69h0a22.62,22.62,0,0,1-4.31,3.79,2.38,2.38,0,0,1-1,.35,1,1,0,0,1-.69-.17h-.17l-1.38.86c-1.38-1.38-2.93-2.76-4.32-4.14a44.21,44.21,0,0,0-22.43-9l-.17-1.38h0v.18a2.45,2.45,0,0,1-.87-1.38,34,34,0,0,1,.35-5.87V154c0-.35.17-.69.17-1,.18-.69.18-1.38.35-2.07v-1h0a3.46,3.46,0,0,0-6.91,0h0v.87a8.8,8.8,0,0,0,.35,2.07,2.2,2.2,0,0,1,.17,1V154a32,32,0,0,1,.35,5.86,2.34,2.34,0,0,1-.87,1.38v.35h0L454.4,163c-1.9.17-3.79.52-5.87.86a41.13,41.13,0,0,0-21.22,12.08l-1-.69h-.17c-.17,0-.35.17-.69.17a2.5,2.5,0,0,1-1-.34,32.26,32.26,0,0,1-4.31-4h0c-.17-.34-.52-.52-.69-.69-.52-.52-.86-1-1.38-1.55-.17-.18-.35-.18-.52-.35l-.17-.17h0a4.1,4.1,0,0,0-2.42-.86,2.6,2.6,0,0,0-2.41,1.2,3.72,3.72,0,0,0,.69,4.84h0a.17.17,0,0,1,.17.17s.34.34.52.34a18.06,18.06,0,0,0,1.9,1l1,.52h0a24.14,24.14,0,0,1,4.83,3.45,1.72,1.72,0,0,1,.52,1.55v-.17h0l1,1c-.18.35-.35.52-.52.87a41,41,0,0,0-6,28.3l-1.38.35h0a.17.17,0,0,1-.17.17,2.82,2.82,0,0,1-1.21,1.21,32.56,32.56,0,0,1-5.87,1h0a2.24,2.24,0,0,0-1,.17c-.69,0-1.38.18-2.07.18-.17,0-.34.17-.69.17-.17,0-.17,0-.34.17h0a3.36,3.36,0,0,0-2.76,4h0a3.21,3.21,0,0,0,3.45,2.42,1.49,1.49,0,0,0,.86-.18h0c.17,0,.17,0,.17-.17s.52,0,.69,0c.69-.17,1.38-.52,1.9-.69a2.5,2.5,0,0,1,1-.34h.17a31.07,31.07,0,0,1,5.7-1.56h.17a2,2,0,0,1,1.38.52.17.17,0,0,1,.17.17h0l1.55-.17a41.62,41.62,0,0,0,14.16,20.19,27.14,27.14,0,0,0,4.65,3.11l-.86,1.21h0a.17.17,0,0,0,.17.17,2,2,0,0,1,.18,1.72,28.42,28.42,0,0,1-2.76,5v.17a3.1,3.1,0,0,1-.69.86c-.35.35-.69,1-1.21,1.73-.18.17-.18.35-.35.52a.17.17,0,0,1-.17.17h0a3.56,3.56,0,0,0,1.38,4.66,3.27,3.27,0,0,0,1.21.35,3.87,3.87,0,0,0,3.28-2.08h0a.17.17,0,0,1,.17-.17c0-.17.17-.34.35-.52.17-.69.51-1.2.69-1.89l.34-1h0a29.64,29.64,0,0,1,2.24-5.35,2.69,2.69,0,0,1,1.38-1c.18,0,.18,0,.18-.18h0l.69-1.38a40.55,40.55,0,0,0,15,2.76,34.67,34.67,0,0,0,9.32-1.2,51.63,51.63,0,0,0,5.52-1.56l.69,1.21h0c.18,0,.18,0,.18.17a2.77,2.77,0,0,1,1.38,1A29.34,29.34,0,0,1,477.7,252v.17l.34,1a6.13,6.13,0,0,0,.7,1.89c.17.18.17.35.34.52a.17.17,0,0,0,.17.17h0a3.87,3.87,0,0,0,3.28,2.08,4.13,4.13,0,0,0,1.38-.35,2.94,2.94,0,0,0,1.56-1.9,4.43,4.43,0,0,0-.18-2.59h0a.17.17,0,0,0-.17-.17c0-.17-.17-.34-.34-.52a6.33,6.33,0,0,0-1.21-1.72,3.29,3.29,0,0,0-.69-.87v-.34a20.21,20.21,0,0,1-2.76-5,2,2,0,0,1,.17-1.72.17.17,0,0,1,.17-.17h0l-.52-1.38a42.7,42.7,0,0,0,18.64-23.47l1.38.17h0a.17.17,0,0,0,.17-.17,2,2,0,0,1,1.38-.52h.18a28.69,28.69,0,0,1,5.52,1.55h.17a2.52,2.52,0,0,0,1,.35,9.38,9.38,0,0,0,1.9.86c.17,0,.34.17.69.17.17,0,.17,0,.34.17h0a1.51,1.51,0,0,0,.86.18,3.76,3.76,0,0,0,3.46-2.42,4.07,4.07,0,0,0-3.11-3.62Zm-49.87-5.35L458,211.31l-4.66-2.24-1.21-5,3.28-4.14h5.17l3.28,4.14Zm28.13-11.22a33.24,33.24,0,0,1,.69,10.87l-16.4-4.66h0a2.79,2.79,0,0,1-1.38-4.66l12.94-11.73A35.24,35.24,0,0,1,490.82,197.85Zm-9.32-16.57-14.15,10a2.94,2.94,0,0,1-3.8-.69,1.55,1.55,0,0,1-.52-1.21L462,172a32.57,32.57,0,0,1,19.5,9.32Zm-31.24-8.8,3.45-.69-.86,17.26h0a2.88,2.88,0,0,1-2.93,2.76,4,4,0,0,1-1.39-.35l-14.32-10.18A34.32,34.32,0,0,1,450.26,172.48Zm-21.05,15.19L442,199.06h0a2.78,2.78,0,0,1,.34,4,1.94,1.94,0,0,1-1.38.86l-16.74,4.83A36.26,36.26,0,0,1,429.21,187.67Zm-2.94,29.16,17.09-2.93a2.82,2.82,0,0,1,2.93,2.24,2.08,2.08,0,0,1-.17,1.73h0l-6.56,15.87A33.9,33.9,0,0,1,426.27,216.83Zm39.18,21.4a34.86,34.86,0,0,1-7.42.86,38.94,38.94,0,0,1-10.88-1.72L455.61,222a2.67,2.67,0,0,1,3.45-.69,8.3,8.3,0,0,1,1.38,1.21h0l8.29,15A28,28,0,0,0,465.45,238.23Zm21.05-15a33,33,0,0,1-10.35,10.35l-6.73-16.22a2.8,2.8,0,0,1,1.55-3.28,5.08,5.08,0,0,1,1.55-.34l17.26,2.93A25.82,25.82,0,0,1,486.5,223.22Z"/><path class="cls-3" d="M360.32,246.49a30.42,30.42,0,0,1-22.19-2.06l2.74-6.65c6.53,3.28,11.76,4.46,18.69,2.16s14.72-7.8,18-14.33l2.9,1.46c-3.67,7.3-11.23,16.49-19,19.06C361.1,246.26,360.71,246.38,360.32,246.49Z"/><path class="cls-4" d="M360.24,245.51c.39-.11.77-.23,1.16-.36,7.49-2.48,14.8-11.14,18.59-18.32l.47.24c-3.67,7.3-11.23,16.49-19,19.06-.38.13-.77.25-1.16.36a30.42,30.42,0,0,1-22.19-2.06l.33-.78A30.31,30.31,0,0,0,360.24,245.51Z"/><path class="cls-5" d="M359.62,244.71c-6.5,2.48-11.66.43-18.27-4.55l-.53,2.22c5.6,4.38,11.4,8,16.44,6.06s9.79-6.11,14-10.87c3-3.45,4.55-10.51,4.55-10.51A28.68,28.68,0,0,1,359.62,244.71Z"/><path class="cls-3" d="M397.56,209c-3.72-4.2-13.16,1.88-18,7.57a11.16,11.16,0,0,0-2.48,10.88c.37,1.21,1.74,3.83,3.11,4,2.3.24,6.55-4.27,6.54-6.59,0-1.09-1.93-2.74-3.39-3.84C389.49,216.39,401.23,213.14,397.56,209Z"/><path class="cls-6" d="M379.59,216.56a11.16,11.16,0,0,0-2.48,10.88,8.2,8.2,0,0,0,.54,1.29c0-.08,0-.15-.08-.22a11.17,11.17,0,0,1,2.48-10.89c4.23-5,12.67-10.58,17.16-9C393.29,205.15,384.26,211,379.59,216.56Z"/><path class="cls-3" d="M375.22,60.39C372.6,50,358.67,27.24,352.76,23.64c-.39,1.59-.74,3.17-1.06,4.74a44.34,44.34,0,0,0-4.81-4.74c1.58,2.88,2.95,5.66,4.14,8.18-7.65,42.64,8.15,74.61,18.43,81.1C374.23,98.14,378.19,72.26,375.22,60.39Z"/><path class="cls-6" d="M375.22,60.39c-2.57-10.24-16-32.27-22.11-36.51C359,28.2,366.87,51.76,369.44,62c2.64,10.53-.19,32.09-4.19,47.14a20.38,20.38,0,0,0,4.21,3.78C374.23,98.14,378.19,72.26,375.22,60.39Z"/><path class="cls-7" d="M230.84,197.87l2.65,24.46,76.1,38.57,35.68-38.57s-19.35-9.15-49.39-18.75c-11.77-3.77-16.19-43.68-26.64-47.36C234.81,144.11,230.84,197.87,230.84,197.87Z"/><path class="cls-8" d="M287.87,210.35c-28.25-5.69-53-1-55.34,10.49s18.71,25.42,47,31.11,53,1,55.34-10.49S316.12,216.05,287.87,210.35Z"/><path class="cls-9" d="M282.63,177.52l-8.82,59.78s8.75,13.62,22.54,15.49c12.53,1.69,20-8.9,20-8.9l25.25-66.37Z"/><path class="cls-4" d="M288.67,177.52h-6l-8.82,59.78s.23.35.66.94Z"/><polygon class="cls-6" points="335.08 177.52 316.38 243.89 341.63 177.52 335.08 177.52"/><polygon class="cls-4" points="320.61 154.06 307.42 221.75 327.13 153.52 320.61 154.06"/><path class="cls-3" d="M0,45.74c4.31,61.14,25,91.92,59.49,131S179,266.56,226.1,253.7c18.6-45.12-21.23-135.82-55.71-174.87S47.08,32.88,0,45.74Z"/><path class="cls-4" d="M65.46,173.06C37.81,150.33,4.31,106.88,0,45.74c4.31,61.14,25,91.92,59.49,131S179,266.56,226.1,253.7a57.36,57.36,0,0,0,3-9.9C167.65,232.63,94.74,197.12,65.46,173.06Z"/><path class="cls-6" d="M171.3,113.65c11,12.43,30,34.47,50.19,60.2-11.6-36.52-32.16-73.56-51.1-95C135.91,39.77,47.08,32.88,0,45.74,47.08,32.88,136.83,74.59,171.3,113.65Z"/><path class="cls-3" d="M182.14,228.33A46.44,46.44,0,0,1,216,232.44l-4.47,10.05c-9.85-5.3-17.8-7.32-28.49-4.11s-22.86,11.28-28.16,21.12l-4.37-2.35c5.93-11,17.9-24.73,29.86-28.33C180.94,228.65,181.54,228.48,182.14,228.33Z"/><path class="cls-5" d="M182.22,229.82c-.6.16-1.19.32-1.79.5-11.56,3.48-23.12,16.41-29.23,27.21l-.71-.38c5.93-11,17.9-24.73,29.86-28.33.59-.17,1.19-.34,1.79-.49A46.44,46.44,0,0,1,216,232.44l-.53,1.19A46.39,46.39,0,0,0,182.22,229.82Z"/><path class="cls-4" d="M187.29,234c8.3-2.5,17,1.27,25.36,5.94l-1.14,2.57c-9.85-5.3-17.8-7.32-28.49-4.11s-22.86,11.28-28.16,21.12l-1-.53C160.21,247.32,174.62,237.78,187.29,234Z"/><path class="cls-3" d="M248.6,165.32c17.47,13.14,43.23,21.46,72,21.46a141.11,141.11,0,0,0,33.35-3.93c6.31-28.82,12.44-56.69,15.9-71.44,4.48-16.67-14.5-46.12-44.27-56.58a181.26,181.26,0,0,0-54.1-9.48c-30.8-.44-53.15,25.48-49.81,46.86,2.32,17.88-3.91,68.91-10.8,116-6.12,41.74-18.15,80.34-21.26,89.92a26.36,26.36,0,0,0-8.8-.94c-13.14.43-31.91,6.85-30.16,16.6,1.86,10.38,21.85-5.16,35.09-7.14a84.35,84.35,0,0,1,12.87-.95l3.32-7.71c20.52-3.7,59.59-10.33,75.43-10.33,14,0,31.89,5.91,47.84,11.14l4.1,9.51a68.33,68.33,0,0,1,10.52.78c10.84,1.62,27.19,14.33,28.71,5.84,1.43-8-13.93-13.23-24.68-13.58a20.09,20.09,0,0,0-7.76,1h0c2.35-10.28,5.27-61.95,9.22-79.94-10.16,7.5-23.84,13.07-41.72,14.7C212,245.37,241.22,172,248.6,165.32Z"/><path class="cls-3" d="M142,255.52a2.38,2.38,0,0,1,1.65-1.57c1.58-.28,4,.44,6,1.61A16.2,16.2,0,0,1,153,258.2s-2.31-.73-5.09-1.24S142,256.06,142,255.52Z"/><path class="cls-3" d="M138.5,260.57a3.24,3.24,0,0,1,1.22-2.78c1.8-1.15,5.18-1.54,8.14-1.09a21.32,21.32,0,0,1,5.46,1.52s-3.21.29-6.89,1.09S138.74,261.25,138.5,260.57Z"/><path class="cls-3" d="M141.44,265.78a3.26,3.26,0,0,1-.07-3c1.15-1.8,4-3.58,6.92-4.42a21.5,21.5,0,0,1,5.61-.92s-2.8,1.62-5.8,3.9S141.94,266.28,141.44,265.78Z"/><path class="cls-3" d="M151.24,267.12a2.56,2.56,0,0,0,2.37.36c1.53-.72,2.64-2.21,3.59-4.38s-1.47-6.79-6-5.57c4.47,1.69,2.94,5.81,1.64,6.56S150.9,266.67,151.24,267.12Z"/><path class="cls-6" d="M353.78,72.9c7.33,11,10.62,22.67,8.47,31.18-3.12,14-10.21,51-16.2,80.43,2.67-.48,5.29-1,7.86-1.66,6.31-28.82,12.44-56.69,15.9-71.44C372.61,101,366.23,85.55,353.78,72.9ZM338.44,282.74c1.89-19.81,4.12-48.05,6.83-60.41a66.07,66.07,0,0,1-8.34,5.25C336,240.06,337.09,261.91,338.44,282.74Z"/><path class="cls-4" d="M221.24,121.89c-1.77,23.72-6,55.83-10.41,86.28-5.23,35.7-14.79,69.1-19.39,84,6.29-14.91,22.1-43.35,27.33-79C223.23,182.69,221.52,145.61,221.24,121.89Z"/><path class="cls-3" d="M246.62,52.33c-2-12.85-35.13-49.27-44.09-52.33-.42,2.9-.74,5.74-1,8.54C197,3.9,193.41.52,192.37,0c3.15,5.75,6.06,11.4,8.77,16.83-1,48.09,25,79.91,39.91,85.26C245.32,83.69,248.89,66.75,246.62,52.33Z"/><path class="cls-6" d="M244,55c1.26,8,1.54,18.74.81,29.87,2.23-11.78,3.38-22.73,1.84-32.52-2-12.85-35.13-49.27-44.09-52.33C211.49,3.06,241.94,42.13,244,55Z"/><path class="cls-7" d="M238.26,52.61C237,44.86,217.05,22.87,211.64,21c-5,34.67,13.23,58,23.25,61.63C237.48,71.54,239.63,61.32,238.26,52.61Z"/><path class="cls-7" d="M243.11,162.07a23.06,23.06,0,0,1,11.51-4.84,13.82,13.82,0,0,0-16.33,10A23.35,23.35,0,0,1,243.11,162.07Z"/><path class="cls-10" d="M299.66,163.09c-3.17,7.72,2.91,14.38,13.58,14.87s21.89-5.37,25.06-13.08S302.83,155.37,299.66,163.09Z"/><path class="cls-6" d="M299.76,166.13c2.55-6.19,24.08-7.3,37-4.59-7.16-4.71-34.47-4.89-37.11,1.55a10,10,0,0,0-.69,5.65A14.34,14.34,0,0,1,299.76,166.13Z"/><path class="cls-11" d="M407.11,114.79c-.53-1.27-4.46-2.73-6.12-3.21a194.06,194.06,0,0,0-32.63-5.9c-13.8-1.09-27.57.44-41.22,2.69-7,1.14-13.59,1.36-20.25-1.28-5.88-2.33-11.39-5.22-17.45-7.09-13.45-4.16-31.1-6.68-41.65-7.37-3-.19-9-.24-12-.2-2.13,0-6.32.31-8.36,1.64l-9.09-.82.59,7.9,6.79.13c.12,1,.29,1.9.4,2.62a14.75,14.75,0,0,0,.93,3.74c.77,1.63,2.12,2.87,2.66,4.64,2.38,7.88,2.76,16.31,5.11,24.19s7.1,13.65,14,17c11.49,5.56,27.61,5.74,38.77-1.09,9.75-6,15.14-16.34,19.52-26.79,1.1-2.62,2.16-5.06,5.14-5.27,2.33-.16,5.56,0,6.7,2.46,1.4,3,1.77,6.7,2.68,9.91a73.68,73.68,0,0,0,3.14,9c5.25,12.22,15,20.75,27.8,23.11a48.93,48.93,0,0,0,21.76-1,25.45,25.45,0,0,0,15.17-11.15c4-6.09,6.49-13,9-19.74.65-1.79,1.38-3.6,3-4.74,1.16-.84,2.46-1.48,3.23-2.76C406.55,122.14,408.6,118.36,407.11,114.79Z"/><path class="cls-5" d="M374.37,109.16l-25.48,51.18c.95.26,1.93.49,2.92.67a43.17,43.17,0,0,0,6.92.7l19.92-51.87C377.22,109.6,375.79,109.37,374.37,109.16Zm-8.37-1c-1.73-.14-3.47-.23-5.2-.27l-27.16,43a32.22,32.22,0,0,0,10.93,7.91L370,108.58C368.59,108.42,367.27,108.29,366,108.19Zm-92.11-9-33.31,42.86a22.74,22.74,0,0,0,9.18,8c.43.21.87.41,1.32.61l31.35-49.46C279.67,100.46,276.79,99.79,273.89,99.19Zm-18.4,53a40.28,40.28,0,0,0,10.14,1.5l24.93-49.86c-1.29-.51-2.6-1-3.94-1.42Z"/><path class="cls-6" d="M346.15,72.06c2.55-6.2,24.08-7.31,37-4.6C376,62.75,348.69,62.58,346.05,69a10.07,10.07,0,0,0-.69,5.65A14.25,14.25,0,0,1,346.15,72.06Z"/></g></g></svg>